<svg width="747" height="723" viewBox="0 0 747 723" fill="none" xmlns="http://www.w3.org/2000/svg">
<path fill-rule="evenodd" clip-rule="evenodd" d="M114.3 77C130.8 40.5 158.2 17.9 198.3 11.6L311.3 158.2L227.5 223.3L114.3 77Z" fill="#DCA684"/>
<path fill-rule="evenodd" clip-rule="evenodd" d="M231.3 262.2C174.5 194.3 308 122 328.8 148.9L377.6 211.7C383.4 219.2 382.1 230 374.6 235.8L286 304.5C278.5 310.3 267.7 309 261.9 301.5L231.3 262.2Z" fill="#DCA684"/>
<path fill-rule="evenodd" clip-rule="evenodd" d="M345.7 226.7C340.6 220.2 341.8 210.8 348.3 205.7L351.8 202.9C358.3 197.8 367.7 199 372.8 205.5L454.5 310.6C459.6 317.1 458.4 326.5 451.9 331.6L448.3 334.4C441.8 339.5 432.4 338.3 427.3 331.8L345.7 226.7Z" fill="#DCA684"/>
<path fill-rule="evenodd" clip-rule="evenodd" d="M322.4 258.2C317.3 251.7 318.5 242.3 325 237.2L328.5 234.4C335 229.3 344.4 230.5 349.5 237L431.2 342.1C436.3 348.6 435.1 358 428.6 363.1L425.1 365.9C418.6 371 409.2 369.8 404.1 363.3L322.4 258.2Z" fill="#DCA684"/>
<path fill-rule="evenodd" clip-rule="evenodd" d="M282.6 267.3C277.5 260.8 278.7 251.4 285.2 246.3L288.7 243.5C295.2 238.4 304.6 239.6 309.7 246.1L391.4 351.2C396.5 357.7 395.3 367.1 388.8 372.2L385.2 375C378.7 380.1 369.3 378.9 364.2 372.4L282.6 267.3Z" fill="#DCA684"/>
<path fill-rule="evenodd" clip-rule="evenodd" d="M365.8 367.3C361.5 361.7 365.8 358 371.4 353.6C377 349.3 381.7 346 386.1 351.5C390.4 357.1 389.4 365.2 383.8 369.5C378.2 373.9 370.2 372.9 365.8 367.3Z" fill="#F5DECD"/>
<path fill-rule="evenodd" clip-rule="evenodd" d="M238.8 272.2C233.7 265.7 234.9 256.3 241.4 251.2L244.9 248.4C251.4 243.3 260.8 244.5 265.9 251L347.6 356.1C352.7 362.6 351.5 372 345 377.1L341.5 379.9C335 385 325.6 383.8 320.5 377.3L238.8 272.2Z" fill="#DCA684"/>
<path fill-rule="evenodd" clip-rule="evenodd" d="M322 372.1C317.7 366.5 322 362.8 327.6 358.4C333.2 354.1 337.9 350.8 342.3 356.4C346.6 362 345.6 370.1 340 374.4C334.4 378.7 326.3 377.7 322 372.1Z" fill="#F5DECD"/>
<path fill-rule="evenodd" clip-rule="evenodd" d="M309.8 180.4C299.7 177.5 293.9 167 296.8 156.9L297.1 156C300 145.9 310.5 140.1 320.6 143L419.6 169.2C429.7 172.1 435.5 182.6 432.6 192.7L432.3 193.6C429.4 203.7 418.9 209.5 408.8 206.6L309.8 180.4Z" fill="#DCA684"/>
<path fill-rule="evenodd" clip-rule="evenodd" d="M427 180.2C427.6 177.9 427.6 175.7 427.2 173.5C425.1 171.5 422.5 170 419.5 169.1L404.9 165.2C403.7 167.6 402.9 170.7 402 174C399.8 182.7 398.4 189.9 407.1 192.1C416 194.3 424.9 189 427 180.2Z" fill="#FAEDE4"/>
<path fill-rule="evenodd" clip-rule="evenodd" d="M427 180.2C427.6 177.9 427.6 175.7 427.2 173.5C425.1 171.5 422.5 170 419.5 169.1L408.5 166.1C407.4 168.4 406.7 171.3 405.9 174.4C403.7 183.1 402.3 190.3 411 192.5C411 192.5 411 192.5 411.1 192.5C418.5 192.6 425.2 187.7 427 180.2Z" fill="#F6E5D6"/>
<path fill-rule="evenodd" clip-rule="evenodd" d="M231.2 262.1C231.2 262.1 231.3 262.2 231.2 262.1C231.3 262.2 231.2 262.1 231.2 262.1ZM204 193.2L223.3 218L204 193.2Z" fill="#F4F4F4"/>
<path fill-rule="evenodd" clip-rule="evenodd" d="M339.1 381.4C336.6 382.7 333.9 383.2 331.2 383C333.9 383.2 336.6 382.7 339.1 381.4ZM382.9 376.6C380.4 377.9 377.7 378.4 375 378.2C377.7 378.4 380.4 377.9 382.9 376.6ZM360.3 367.4L364.3 372.5L360.3 367.4Z" fill="#B0DCE3"/>
<path fill-rule="evenodd" clip-rule="evenodd" d="M341.3 380.1C340.6 380.6 339.9 381.1 339.1 381.5C339.8 381.1 340.6 380.6 341.3 380.1ZM341.5 379.9C341.4 379.9 341.4 380 341.5 379.9C341.4 380 341.4 379.9 341.5 379.9ZM385.2 375.2C384.5 375.8 383.7 376.2 382.9 376.6C383.7 376.2 384.5 375.7 385.2 375.2ZM301.9 292.2L360.3 367.4L301.9 292.2L301.2 292.7L301.9 292.2Z" fill="#A7D0D4"/>
<path fill-rule="evenodd" clip-rule="evenodd" d="M428.9 326.7C424.6 321.1 428.9 317.4 434.5 313C440.1 308.7 444.8 305.4 449.2 311C453.5 316.6 452.5 324.7 446.9 329C441.3 333.3 433.2 332.3 428.9 326.7Z" fill="#FAEDE4"/>
<path fill-rule="evenodd" clip-rule="evenodd" d="M405.6 358.1C401.3 352.5 405.6 348.8 411.2 344.4C416.8 340.1 421.5 336.8 425.9 342.4C430.2 348 429.2 356.1 423.6 360.4C418 364.7 410 363.7 405.6 358.1Z" fill="#FAEDE4"/>
<path fill-rule="evenodd" clip-rule="evenodd" d="M381.4 348.6C383 348.7 384.6 349.6 386.1 351.5C390.4 357.1 389.4 365.2 383.8 369.5C381.2 371.5 378.1 372.4 375 372.2C371.5 371.9 368.1 370.3 365.8 367.3C361.5 361.7 365.8 358 371.4 353.6C375.1 350.8 378.3 348.4 381.4 348.6Z" fill="#FAEDE4"/>
<path fill-rule="evenodd" clip-rule="evenodd" d="M337.5 353.4C339.1 353.5 340.7 354.4 342.2 356.3C346.5 361.9 345.5 370 339.9 374.3C337.3 376.3 334.2 377.2 331.1 377C327.6 376.7 324.2 375.1 321.9 372.1C317.6 366.5 321.9 362.8 327.5 358.4C331.2 355.6 334.5 353.2 337.5 353.4Z" fill="#FAEDE4"/>
<path fill-rule="evenodd" clip-rule="evenodd" d="M429.9 327.9C427 322.9 431.1 319.4 436.3 315.4C441.5 311.4 445.9 308.3 450 312.2C453.3 317.7 452.1 324.9 446.9 328.9C441.7 333 434.4 332.4 429.9 327.9Z" fill="#F6E5D6"/>
<path fill-rule="evenodd" clip-rule="evenodd" d="M406.7 359.3C403.8 354.3 407.9 350.8 413.1 346.8C418.3 342.8 422.7 339.7 426.8 343.6C430.1 349.1 428.9 356.3 423.7 360.3C418.4 364.4 411.2 363.9 406.7 359.3Z" fill="#F6E5D6"/>
<path fill-rule="evenodd" clip-rule="evenodd" d="M383.2 351C384.5 351.1 385.7 351.6 386.9 352.8C390.2 358.3 389 365.5 383.8 369.6C381.2 371.6 378.1 372.5 375 372.3C372 372.1 369.1 370.8 366.8 368.6C363.9 363.6 368 360.1 373.2 356.1C376.9 353.1 380.2 350.8 383.2 351Z" fill="#F6E5D6"/>
<path fill-rule="evenodd" clip-rule="evenodd" d="M339.4 355.8C340.7 355.9 341.9 356.4 343.1 357.6C346.4 363.1 345.2 370.3 340 374.4C337.4 376.4 334.3 377.3 331.2 377.1C328.2 376.9 325.3 375.6 323 373.4C320.1 368.4 324.2 364.9 329.4 360.9C333.1 358 336.4 355.6 339.4 355.8Z" fill="#F6E5D6"/>
<path fill-rule="evenodd" clip-rule="evenodd" d="M255.5 160.6L256.4 161.7C256.7 162.1 256.7 162.7 256.3 163L249.9 168.3C249.5 168.6 248.9 168.6 248.6 168.2L247.7 167.1C247.4 166.7 247.4 166.1 247.8 165.8L254.2 160.5C254.6 160.1 255.2 160.2 255.5 160.6Z" fill="#C8C8C9"/>
<path fill-rule="evenodd" clip-rule="evenodd" d="M179.8 162.1L261.7 94.4L280.1 118.1L198.2 185.8L179.8 162.1Z" fill="#2A2F33"/>
<path fill-rule="evenodd" clip-rule="evenodd" d="M179.8 162.1L256.1 99L275.2 122.1L198.2 185.8L179.8 162.1Z" fill="#2F373D"/>
<path fill-rule="evenodd" clip-rule="evenodd" d="M251.7 164C264.9 153.1 266.8 133.5 255.9 120.3C245 107.1 225.4 105.3 212.2 116.2C199 127.1 197.1 146.7 208 159.9C218.9 173.1 238.5 174.9 251.7 164Z" fill="#0E0E0E"/>
<path fill-rule="evenodd" clip-rule="evenodd" d="M262.5 134.7C261.6 129.6 259.4 124.6 255.9 120.3C245 107.1 225.4 105.3 212.2 116.2C207.4 120.2 204 125.4 202.3 130.9L262.5 134.7Z" fill="#212121"/>
<path fill-rule="evenodd" clip-rule="evenodd" d="M264.2 135.2C264.8 133.1 266.4 129.9 270.2 125.6L268.2 123.2L262.6 127.9C261.3 124.2 259.4 120.7 256.8 117.5C254.2 114.3 251.1 111.8 247.8 109.9L253.4 105.3L251.4 102.9C246.6 105.8 243.2 106.8 241 107C230.6 103.8 218.8 105.7 209.8 113.2C200.9 120.5 196.8 131.5 197.8 142.1C197.3 144.2 195.8 147.6 191.6 152.3L193.6 154.7L199.5 149.9C200.8 153.6 202.7 157.1 205.3 160.2C207.9 163.4 211 165.9 214.4 167.9L208.5 172.8L210.5 175.2C216.1 171.8 219.8 171.1 221.9 171.1C244.4 177.2 266.6 158.5 264.2 135.2ZM208.9 157.1C198.8 144.9 200.6 126.8 212.8 116.7C225 106.6 243.1 108.3 253.2 120.5C263.3 132.7 261.5 150.8 249.3 160.9C237.1 170.9 219 169.2 208.9 157.1Z" fill="#E3E3E3"/>
<path d="M248.561 110.867L261.812 126.898L267.438 122.247L254.187 106.216L248.561 110.867Z" fill="#E3E3E3"/>
<path d="M194.485 155.569L207.737 171.602L213.364 166.951L200.112 150.918L194.485 155.569Z" fill="#E3E3E3"/>
<path fill-rule="evenodd" clip-rule="evenodd" d="M246.2 144.2L245.9 145L249.7 146.4L250 145.6L246.2 144.2ZM236.3 123.7L237.1 124L238.5 120.2L237.7 119.9L236.3 123.7ZM246.8 135.9L246.9 136.7L250.9 136L250.8 135.2L246.8 135.9ZM243.2 128.4L243.7 129L246.8 126.4L246.3 125.8L243.2 128.4ZM227.9 123L228.7 122.9L228 118.9L227.2 119L227.9 123ZM220.4 126.7L221 126.2L218.4 123.1L217.8 123.5L220.4 126.7ZM215.7 133.6L216 132.8L212.2 131.4L211.9 132.2L215.7 133.6ZM215.1 141.9L215 141.1L211 141.8L211.1 142.6L215.1 141.9ZM218.7 149.4L218.2 148.8L215.1 151.4L215.6 152L218.7 149.4ZM225.6 154.2L224.8 153.9L223.4 157.7L224.2 158L225.6 154.2ZM234 154.8L233.2 154.9L233.9 158.9L234.7 158.8L234 154.8ZM241.5 151.1L240.9 151.6L243.5 154.7L244.1 154.2L241.5 151.1Z" fill="white"/>
<path fill-rule="evenodd" clip-rule="evenodd" d="M230.1 138.6L219.4 137.8V138.4L230.1 139.2C230.1 139.1 230.1 138.8 230.1 138.6Z" fill="white"/>
<path fill-rule="evenodd" clip-rule="evenodd" d="M242.7 144.8L242.9 144.3L232.6 139.4C232.8 138.8 232.7 138.2 232.3 137.7C232.1 137.4 231.8 137.3 231.5 137.2L231.4 130.1H230.2L230.3 137.2C230.1 137.3 230 137.4 229.8 137.5C229.1 138.1 229 139.2 229.6 140C230.2 140.7 231.3 140.8 232.1 140.2C232.2 140.1 232.3 140 232.4 139.9L242.7 144.8ZM230.3 139.5L230.2 139.4C230.2 139.3 230.2 139.3 230.1 139.2C230.1 139 230.1 138.9 230.2 138.8C230.6 138.5 231.2 138.5 231.5 138.9C231.8 139.3 231.8 139.9 231.4 140.2C231.2 140 230.6 139.9 230.3 139.5Z" fill="white"/>
<path fill-rule="evenodd" clip-rule="evenodd" d="M556.5 199.6C521.4 180.7 489.2 157 462 125.5L499.3 125L558.6 181.6L556.5 199.6Z" fill="#FF6033"/>
<path d="M451.238 153.789L529.935 215.812L600.935 125.727L522.238 63.7032L451.238 153.789Z" fill="#D8B091"/>
<path fill-rule="evenodd" clip-rule="evenodd" d="M416.6 166.1C465.9 98.7 562.4 204.5 542.6 229.7L496.2 288.6C490.6 295.6 480.4 296.9 473.4 291.3L390.3 225.8C383.3 220.2 382 210 387.6 203L416.6 166.1Z" fill="#F0CBB0"/>
<path fill-rule="evenodd" clip-rule="evenodd" d="M475 262.9C479.8 256.8 488.7 255.7 494.8 260.5L498.1 263.1C504.2 267.9 505.3 276.8 500.4 282.9L422.8 381.7C418 387.8 409.1 388.9 403 384.1L399.7 381.5C393.6 376.7 392.5 367.8 397.3 361.7L475 262.9Z" fill="#F0CBB0"/>
<path fill-rule="evenodd" clip-rule="evenodd" d="M440.9 248.7C445.7 242.6 454.6 241.5 460.7 246.4L464 249C470.1 253.8 471.2 262.7 466.3 268.8L388.7 367.5C383.9 373.6 375 374.7 368.9 369.8L365.6 367.2C359.5 362.4 358.4 353.5 363.2 347.4L440.9 248.7Z" fill="#F0CBB0"/>
<path fill-rule="evenodd" clip-rule="evenodd" d="M423.5 214.3C428.3 208.2 437.2 207.1 443.3 211.9L446.6 214.5C452.7 219.3 453.8 228.2 448.9 234.3L371.1 333C366.3 339.1 357.4 340.2 351.3 335.4L348 332.8C341.9 328 340.8 319.1 345.6 313L423.5 214.3Z" fill="#F0CBB0"/>
<path fill-rule="evenodd" clip-rule="evenodd" d="M350.8 313.2C354.9 307.9 359.4 311.1 364.6 315.2C369.9 319.3 373.9 322.9 369.8 328.2C365.7 333.5 358 334.4 352.8 330.2C347.6 326.1 346.7 318.5 350.8 313.2Z" fill="#F5DECD"/>
<path fill-rule="evenodd" clip-rule="evenodd" d="M409.1 175.3C413.9 169.2 422.8 168.1 428.9 172.9L432.2 175.5C438.3 180.3 439.4 189.2 434.5 195.3L356.7 294C351.9 300.1 343 301.2 336.9 296.4L333.6 293.8C327.5 289 326.4 280.1 331.3 274L409.1 175.3Z" fill="#F0CBB0"/>
<path d="M409.1 175.3C413.9 169.2 422.8 168.1 428.9 172.9L432.2 175.5C438.3 180.3 439.4 189.2 434.5 195.3L356.7 294C351.9 300.1 343 301.2 336.9 296.4L333.6 293.8C327.5 289 326.4 280.1 331.3 274L409.1 175.3Z" stroke="#F0CBB0" stroke-width="0.216" stroke-miterlimit="22.9256"/>
<path fill-rule="evenodd" clip-rule="evenodd" d="M336.4 274.2C340.5 268.9 345 272.1 350.2 276.2C355.5 280.3 359.5 283.9 355.4 289.2C351.3 294.4 343.7 295.4 338.4 291.2C333.2 287 332.3 279.4 336.4 274.2Z" fill="#F5DECD"/>
<path fill-rule="evenodd" clip-rule="evenodd" d="M509.3 219.5C509.7 209.6 518 201.9 527.9 202.2H528.8C538.7 202.6 546.4 210.9 546.1 220.8L544.6 317.5C544.2 327.4 535.9 335.1 526 334.8H525.1C515.2 334.4 507.5 326.1 507.8 316.2L509.3 219.5Z" fill="#F0CBB0"/>
<path fill-rule="evenodd" clip-rule="evenodd" d="M536.1 326.9C538.3 326.9 540.4 326.4 542.3 325.6C543.6 323.2 544.5 320.5 544.6 317.5L544.9 303.3C542.4 302.8 539.4 302.7 536.1 302.7C527.6 302.7 520.7 303 520.7 311.5C520.7 320 527.6 326.9 536.1 326.9Z" fill="#FAEDE4"/>
<path fill-rule="evenodd" clip-rule="evenodd" d="M536.1 326.9C538.3 326.9 540.4 326.4 542.3 325.6C543.6 323.2 544.5 320.5 544.6 317.5L544.8 306.8C542.4 306.4 539.6 306.3 536.6 306.3C528.1 306.3 521.2 306.6 521.2 315.1C521.2 315.1 521.2 315.1 521.2 315.2C522.8 321.9 528.8 326.9 536.1 326.9Z" fill="#F6E5D6"/>
<path fill-rule="evenodd" clip-rule="evenodd" d="M473.6 125.5L455.3 148.8L473.6 125.5Z" fill="#F4F4F4"/>
<path fill-rule="evenodd" clip-rule="evenodd" d="M331.8 291.9C330.1 289.9 329 287.5 328.5 285C329 287.6 330.1 290 331.8 291.9ZM346.2 331C344.5 329 343.4 326.6 342.9 324.1C343.3 326.6 344.4 329 346.2 331ZM349.5 308.2L345.7 313L349.5 308.2Z" fill="#B0DCE3"/>
<path fill-rule="evenodd" clip-rule="evenodd" d="M333.5 293.6C332.9 293.1 332.3 292.5 331.8 291.9C332.3 292.5 332.9 293.1 333.5 293.6ZM333.7 293.8C333.7 293.8 333.7 293.7 333.7 293.8C333.7 293.7 333.7 293.8 333.7 293.8ZM348 332.8C347.3 332.3 346.7 331.7 346.2 331C346.7 331.6 347.3 332.2 348 332.8ZM405.1 237.6L349.5 308.2L405.1 237.6L404.5 237.1L405.1 237.6Z" fill="#A7D0D4"/>
<path fill-rule="evenodd" clip-rule="evenodd" d="M402.3 361.8C406.4 356.5 410.9 359.7 416.1 363.8C421.4 367.9 425.4 371.5 421.3 376.8C417.2 382.1 409.5 382.9 404.3 378.8C399.1 374.6 398.2 367 402.3 361.8Z" fill="#FAEDE4"/>
<path fill-rule="evenodd" clip-rule="evenodd" d="M368.2 347.6C372.3 342.3 376.8 345.5 382 349.6C387.3 353.7 391.3 357.3 387.2 362.6C383.1 367.9 375.5 368.8 370.2 364.6C365 360.5 364.1 352.8 368.2 347.6Z" fill="#FAEDE4"/>
<path fill-rule="evenodd" clip-rule="evenodd" d="M371.5 323.2C371.8 324.7 371.3 326.3 369.9 328.2C365.8 333.5 358.1 334.4 352.9 330.2C350.5 328.3 349 325.6 348.5 322.7C347.9 319.4 348.7 316 350.9 313.2C355 307.9 359.5 311.1 364.7 315.2C368.1 317.9 371 320.4 371.5 323.2Z" fill="#FAEDE4"/>
<path fill-rule="evenodd" clip-rule="evenodd" d="M357.1 284.2C357.4 285.7 356.9 287.3 355.5 289.2C351.4 294.4 343.8 295.4 338.5 291.2C336.1 289.3 334.6 286.6 334.1 283.7C333.5 280.4 334.3 277 336.5 274.2C340.6 268.9 345.1 272.1 350.3 276.2C353.7 278.9 356.6 281.3 357.1 284.2Z" fill="#FAEDE4"/>
<path fill-rule="evenodd" clip-rule="evenodd" d="M484.6 96.6C523.8 113 553.8 136.6 580.1 169.4L556.4 199.6C532.5 165.8 501.3 140.8 461.9 125.5L484.6 96.6Z" fill="#FF8433"/>
<path fill-rule="evenodd" clip-rule="evenodd" d="M401.5 363C405.4 359.2 409.5 362.2 414.4 366C419.3 369.8 423.1 373.2 420.4 377.8C416.1 382.1 409.2 382.6 404.4 378.7C399.5 375 398.4 368.2 401.5 363Z" fill="#F6E5D6"/>
<path fill-rule="evenodd" clip-rule="evenodd" d="M367.4 348.8C371.3 345 375.4 348 380.3 351.8C385.2 355.6 389 359 386.3 363.6C382 367.9 375.1 368.4 370.3 364.5C365.4 360.8 364.3 354 367.4 348.8Z" fill="#F6E5D6"/>
<path fill-rule="evenodd" clip-rule="evenodd" d="M369.7 325.5C369.9 326.7 369.7 327.9 368.9 329.3C364.6 333.6 357.7 334.1 352.8 330.2C350.4 328.3 348.9 325.6 348.4 322.7C347.9 319.9 348.4 316.9 350 314.4C353.9 310.6 358 313.6 362.9 317.4C366.3 320.2 369.2 322.6 369.7 325.5Z" fill="#F6E5D6"/>
<path fill-rule="evenodd" clip-rule="evenodd" d="M355.3 286.4C355.5 287.6 355.3 288.8 354.5 290.2C350.2 294.5 343.3 295 338.4 291.1C336 289.2 334.5 286.5 334 283.6C333.5 280.8 334 277.8 335.6 275.3C339.5 271.5 343.6 274.5 348.5 278.3C351.9 281.1 354.9 283.6 355.3 286.4Z" fill="#F6E5D6"/>
<path fill-rule="evenodd" clip-rule="evenodd" d="M547.8 188.1L571 158.5C572.2 159.9 573.4 161.3 574.7 162.7L551.3 192.5C550.1 191 549 189.5 547.8 188.1Z" fill="#FF6033"/>
<path fill-rule="evenodd" clip-rule="evenodd" d="M534.6 173.2L557.3 144.2C558.6 145.5 559.9 146.8 561.2 148.1L538.4 177.2C537.2 175.9 535.9 174.5 534.6 173.2Z" fill="#FF6033"/>
<path fill-rule="evenodd" clip-rule="evenodd" d="M520.3 159.8L542.8 131.1C544.2 132.3 545.6 133.4 547 134.6L524.5 163.3C523 162.2 521.6 161 520.3 159.8Z" fill="#FF6033"/>
<path fill-rule="evenodd" clip-rule="evenodd" d="M504.7 148L527.1 119.5C528.6 120.5 530.1 121.6 531.6 122.6L509.2 151.1C507.7 150.1 506.2 149 504.7 148Z" fill="#FF6033"/>
<path fill-rule="evenodd" clip-rule="evenodd" d="M488 137.6L510.4 109.1C512 110 513.6 110.9 515.2 111.9L492.8 140.4C491.2 139.4 489.6 138.5 488 137.6Z" fill="#FF6033"/>
<path fill-rule="evenodd" clip-rule="evenodd" d="M470.1 128.8L492.6 100C494.3 100.8 496 101.6 497.7 102.4L475.2 131.1C473.5 130.3 471.8 129.6 470.1 128.8Z" fill="#FF6033"/>
<path fill-rule="evenodd" clip-rule="evenodd" d="M606 161.1C598.6 165.6 590 168.5 580.2 169.4C554 136.6 524 113 484.7 96.6C483.1 86.9 484.1 77.4 486.6 68.2C508.1 47 519.6 20.7 540 0C589.1 19.7 628.1 51.7 659.1 93.4C638 114 625.4 139.9 606 161.1Z" fill="#FF6033"/>
<path fill-rule="evenodd" clip-rule="evenodd" d="M486.5 68.2C508 47 519.5 20.7 539.9 0C589 19.7 628 51.7 659 93.4C637.9 114.1 625.3 139.9 605.9 161.2C582 126 528.3 81.9 486.5 68.2Z" fill="#FF8433"/>
<path fill-rule="evenodd" clip-rule="evenodd" d="M599.5 152.4C616.1 128.5 633.2 102.9 646.4 77.4C650.8 82.5 655 87.8 659 93.3C637.9 114 625.3 139.8 605.9 161.1C604 158.3 601.9 155.3 599.5 152.4Z" fill="#FF9A33"/>
<path fill-rule="evenodd" clip-rule="evenodd" d="M545.9 2.5C530.1 25 513.6 49.2 500.1 73.6C495.5 71.5 490.9 69.7 486.5 68.2C508 47 519.5 20.7 539.9 0C542 0.8 544 1.6 545.9 2.5Z" fill="#FF6033"/>
<path fill-rule="evenodd" clip-rule="evenodd" d="M108.5 389.3C137.2 417.8 169 466.4 181 507L136.5 478.7L100.5 405L108.5 389.3Z" fill="#21676D"/>
<path fill-rule="evenodd" clip-rule="evenodd" d="M140.9 379.2C167.3 409.1 189.2 442.4 203.8 481.4L168.7 468.9L132.7 395.2L140.9 379.2Z" fill="#C8C8C9"/>
<path d="M223.681 458.599L171.377 373.139L73.5492 433.012L125.854 518.473L223.681 458.599Z" fill="#F9CFA9"/>
<path fill-rule="evenodd" clip-rule="evenodd" d="M260.5 459.1C190.9 505.2 137.1 372.5 164.4 355.8L228.4 316.6C236.1 311.9 246.1 314.3 250.7 322L305.9 412.2C310.6 419.8 308.2 429.8 300.5 434.5L260.5 459.1Z" fill="#FAD9BB"/>
<path fill-rule="evenodd" clip-rule="evenodd" d="M239.2 348C232.5 352.1 223.9 350 219.8 343.3L217.6 339.7C213.5 333 215.6 324.4 222.3 320.3L329.5 254.7C336.2 250.6 344.8 252.7 348.9 259.4L351.1 263C355.2 269.6 353.1 278.3 346.4 282.4L239.2 348Z" fill="#FAD9BB"/>
<path fill-rule="evenodd" clip-rule="evenodd" d="M266.3 373.2C259.6 377.3 250.9 375.2 246.9 368.5L244.7 364.9C240.6 358.2 242.7 349.6 249.4 345.5L356.6 279.9C363.2 275.8 371.9 277.9 376 284.6L378.2 288.2C382.3 294.9 380.2 303.5 373.5 307.6L266.3 373.2Z" fill="#FAD9BB"/>
<path fill-rule="evenodd" clip-rule="evenodd" d="M270.7 411.4C264 415.5 255.4 413.4 251.3 406.7L249.1 403.1C245 396.5 247.1 387.8 253.8 383.7L361 318.1C367.7 314 376.3 316.1 380.4 322.8L382.6 326.4C386.7 333.1 384.6 341.7 377.9 345.8L270.7 411.4Z" fill="#FAD9BB"/>
<path fill-rule="evenodd" clip-rule="evenodd" d="M373.2 343.9C367.5 347.4 364.4 342.9 360.9 337.2C357.4 331.5 354.8 326.7 360.5 323.2C366.2 319.7 373.7 321.5 377.1 327.2C380.7 332.9 378.9 340.4 373.2 343.9Z" fill="#F5DECD"/>
<path fill-rule="evenodd" clip-rule="evenodd" d="M270.7 453.1C264 457.2 255.4 455.1 251.3 448.4L249.1 444.8C245 438.1 247.1 429.5 253.8 425.4L361 359.8C367.7 355.7 376.3 357.8 380.4 364.5L382.6 368.1C386.7 374.8 384.6 383.4 377.9 387.5L270.7 453.1Z" fill="#FAD9BB"/>
<path fill-rule="evenodd" clip-rule="evenodd" d="M373.1 385.5C367.4 389 364.3 384.5 360.8 378.8C357.3 373.1 354.7 368.3 360.4 364.8C366.1 361.3 373.6 363.1 377 368.8C380.6 374.6 378.8 382 373.1 385.5Z" fill="#F5DECD"/>
<path fill-rule="evenodd" clip-rule="evenodd" d="M192 376.9C188.2 386.1 177.7 390.4 168.6 386.6L167.8 386.3C158.6 382.5 154.3 372 158.1 362.9L193.1 272.8C196.9 263.6 207.4 259.3 216.5 263.1L217.3 263.4C226.5 267.2 230.8 277.7 227 286.8L192 376.9Z" fill="#FAD9BB"/>
<path fill-rule="evenodd" clip-rule="evenodd" d="M204.2 266.9C202.1 266.1 200 265.8 197.9 266C195.8 267.8 194.1 270.1 193 272.8L187.8 286.1C189.9 287.5 192.7 288.6 195.8 289.7C203.8 292.7 210.3 294.7 213.3 286.8C216.2 278.7 212.1 269.8 204.2 266.9Z" fill="#FAEDE4"/>
<path fill-rule="evenodd" clip-rule="evenodd" d="M204.2 266.9C202.1 266.1 200 265.8 197.9 266C195.8 267.8 194.1 270.1 193 272.8L189.1 282.8C191.2 284 193.8 285.1 196.7 286.1C204.7 289.1 211.2 291.1 214.2 283.2C214.2 283.2 214.2 283.2 214.2 283.1C214.9 276.2 210.9 269.4 204.2 266.9Z" fill="#F6E5D6"/>
<path fill-rule="evenodd" clip-rule="evenodd" d="M260.4 459.1C260.5 459.1 260.5 459.1 260.4 459.1C260.5 459.1 260.5 459.1 260.4 459.1ZM192.9 477.4L218.2 461.9L192.9 477.4Z" fill="#F4F4F4"/>
<path fill-rule="evenodd" clip-rule="evenodd" d="M383.7 370.4C384.6 372.9 384.8 375.5 384.4 378C384.8 375.5 384.6 372.9 383.7 370.4ZM383.7 328.8C384.6 331.3 384.8 333.9 384.4 336.4C384.8 333.9 384.6 331.3 383.7 328.8ZM372.7 349.1L377.9 345.9L372.7 349.1Z" fill="#B0DCE3"/>
<path fill-rule="evenodd" clip-rule="evenodd" d="M382.6 368.3C383 369 383.4 369.7 383.6 370.5C383.4 369.7 383 369 382.6 368.3ZM382.6 326.5C383 327.2 383.4 328 383.7 328.8C383.4 328 383 327.3 382.6 326.5ZM382.5 326.4C382.6 326.5 382.6 326.5 382.5 326.4C382.6 326.5 382.6 326.5 382.5 326.4ZM296 396L372.6 349.1L296 396L296.4 396.7L296 396Z" fill="#A7D0D4"/>
<path fill-rule="evenodd" clip-rule="evenodd" d="M341.7 280.5C336 284 332.9 279.5 329.4 273.8C325.9 268.1 323.3 263.3 329 259.8C334.7 256.3 342.2 258.1 345.6 263.8C349.2 269.5 347.4 277 341.7 280.5Z" fill="#FAEDE4"/>
<path fill-rule="evenodd" clip-rule="evenodd" d="M368.8 305.6C363.1 309.1 360 304.6 356.5 298.9C353 293.2 350.4 288.4 356.1 284.9C361.8 281.4 369.3 283.2 372.7 288.9C376.3 294.7 374.5 302.1 368.8 305.6Z" fill="#FAEDE4"/>
<path fill-rule="evenodd" clip-rule="evenodd" d="M357.3 327.3C357.6 325.8 358.6 324.4 360.6 323.2C366.3 319.7 373.8 321.5 377.2 327.2C378.8 329.9 379.3 332.9 378.8 335.7C378.2 339 376.3 341.9 373.2 343.8C367.5 347.3 364.4 342.8 360.9 337.1C358.7 333.5 356.8 330.2 357.3 327.3Z" fill="#FAEDE4"/>
<path fill-rule="evenodd" clip-rule="evenodd" d="M357.2 369C357.5 367.5 358.5 366.1 360.5 364.9C366.2 361.4 373.7 363.2 377.1 368.9C378.7 371.6 379.2 374.6 378.7 377.4C378.1 380.7 376.2 383.7 373.1 385.5C367.4 389 364.3 384.5 360.8 378.8C358.6 375.1 356.7 371.8 357.2 369Z" fill="#FAEDE4"/>
<path fill-rule="evenodd" clip-rule="evenodd" d="M140.9 379.2C151.6 419.2 172.2 453.5 203.8 481.4L94.3 548.8L31.4 446.6L140.9 379.2Z" fill="#EAECEC"/>
<path fill-rule="evenodd" clip-rule="evenodd" d="M147.5 399.8C159.2 431.1 177.8 458.4 203.9 481.4L180.6 495.7C153.4 473.3 136.3 447.5 123.9 414.3L147.5 399.8Z" fill="#FFFFFD"/>
<path fill-rule="evenodd" clip-rule="evenodd" d="M108.5 389.2C119.9 436.1 145 474.8 181 507C142.5 522.4 110.6 550.9 76.6 578.9C30.8 548 7.2 506.1 0 456C36.7 435.4 73.4 413.7 108.5 389.2Z" fill="#278086"/>
<path fill-rule="evenodd" clip-rule="evenodd" d="M59.6 566.1C92.7 542.9 134.6 518.1 162.2 488.6C168.1 495 174.3 501.1 181 507C142.5 522.4 110.9 550.7 76.9 578.7L59.6 566.1Z" fill="#2E8B93"/>
<path fill-rule="evenodd" clip-rule="evenodd" d="M110.9 398.5C76.5 422.4 33.4 451 5.59999 482.5L0.299988 455.7C0.899988 455.4 1.39998 455.1 1.99998 454.7C2.59998 454.4 3.09999 454.1 3.69999 453.7C4.29999 453.4 4.79999 453.1 5.39999 452.7C5.99999 452.4 6.49999 452.1 7.09999 451.7C7.69999 451.4 8.19999 451.1 8.79999 450.7C9.39999 450.4 9.89998 450.1 10.5 449.7C11.1 449.4 11.6 449.1 12.2 448.7C12.8 448.4 13.3 448 13.9 447.7C14.5 447.4 15 447 15.6 446.7C16.2 446.4 16.7 446 17.3 445.7C17.9 445.4 18.4 445 19 444.7C19.6 444.4 20.1 444 20.7 443.7C21.3 443.4 21.8 443 22.4 442.7C23 442.4 23.5 442 24.1 441.7C24.7 441.4 25.2 441 25.8 440.7C26.4 440.4 26.9 440 27.5 439.7C28.1 439.4 28.6 439 29.2 438.7C29.8 438.4 30.3 438 30.9 437.7C31.5 437.4 32 437 32.6 436.7C33.2 436.4 33.7 436 34.3 435.7C34.9 435.4 35.4 435 36 434.7C36.6 434.4 37.1 434 37.7 433.7C38.3 433.4 38.8 433 39.4 432.7C40 432.4 40.5 432 41.1 431.7C41.7 431.4 42.2 431 42.8 430.7C43.4 430.4 43.9 430 44.5 429.7C45.1 429.4 45.6 429 46.2 428.7C46.8 428.4 47.3 428 47.9 427.7C48.5 427.4 49 427 49.6 426.7C50.2 426.4 50.7 426 51.3 425.7C51.9 425.4 52.4 425 53 424.7C53.6 424.4 54.1 424 54.7 423.7C55.3 423.4 55.8 423 56.4 422.7C57 422.4 57.5 422 58.1 421.7C58.7 421.4 59.2 421 59.8 420.7C60.4 420.4 60.9 420 61.5 419.7C62.1 419.4 62.6 419 63.2 418.7C63.8 418.4 64.3 418 64.9 417.7C65.5 417.4 66 417 66.6 416.6C67.2 416.2 67.7 415.9 68.3 415.5C68.9 415.1 69.4 414.8 70 414.4C70.6 414 71.1 413.7 71.7 413.3C72.3 412.9 72.8 412.6 73.4 412.2C74 411.8 74.5 411.5 75.1 411.1C75.7 410.7 76.2 410.4 76.8 410C77.4 409.6 77.9 409.3 78.5 408.9C79.1 408.5 79.6 408.2 80.2 407.8C80.8 407.4 81.3 407.1 81.9 406.7C82.5 406.3 83 406 83.6 405.6C84.2 405.2 84.7 404.9 85.3 404.5C85.9 404.1 86.4 403.8 87 403.4C87.6 403 88.1 402.7 88.7 402.3C89.3 401.9 89.8 401.6 90.4 401.2C91 400.8 91.5 400.5 92.1 400.1C92.7 399.7 93.2 399.4 93.8 399C94.4 398.6 94.9 398.3 95.5 397.9C96.1 397.5 96.6 397.2 97.2 396.8C97.8 396.4 98.3 396.1 98.9 395.7C99.5 395.3 100 395 100.6 394.6C101.2 394.2 101.7 393.8 102.3 393.5C102.9 393.1 103.4 392.7 104 392.4C104.6 392 105.1 391.6 105.6 391.3C106.1 390.9 106.7 390.5 107.2 390.2C107.7 389.8 108.3 389.4 108.8 389.1C109.2 392.4 110 395.5 110.9 398.5Z" fill="#21676D"/>
<path fill-rule="evenodd" clip-rule="evenodd" d="M91.9 425.5C95.2 430.9 93.5 437.9 88.2 441.2C82.8 444.5 75.8 442.8 72.5 437.5C69.2 432.1 70.9 425.1 76.2 421.8C81.5 418.5 88.6 420.1 91.9 425.5Z" fill="#9E9E9F"/>
<path fill-rule="evenodd" clip-rule="evenodd" d="M87.6 428.1C89.5 431.1 88.5 435.1 85.5 437C82.5 438.9 78.5 437.9 76.6 434.9C74.7 431.9 75.7 427.9 78.7 426C81.8 424.1 85.8 425.1 87.6 428.1Z" fill="#B6B7B8"/>
<path fill-rule="evenodd" clip-rule="evenodd" d="M86.9 435.8C86.5 436.2 86 436.6 85.5 437C82.5 438.9 78.5 437.9 76.6 434.9C75.5 433.2 75.4 431.1 76 429.3C76.4 428.9 76.9 428.5 77.4 428.1C80.4 426.2 84.4 427.2 86.3 430.2C87.4 432 87.6 434 86.9 435.8Z" fill="#EAECEC"/>
<path fill-rule="evenodd" clip-rule="evenodd" d="M342.9 279.6C337.9 281.8 335.1 277.6 331.8 272.3C328.6 267 326.1 262.6 330.3 259.2C335.8 256.7 342.4 258.6 345.7 263.9C348.9 269.1 347.6 275.9 342.9 279.6Z" fill="#F6E5D6"/>
<path fill-rule="evenodd" clip-rule="evenodd" d="M370 304.8C365 307 362.2 302.8 358.9 297.5C355.7 292.2 353.2 287.8 357.4 284.4C362.9 281.9 369.5 283.8 372.8 289.1C376 294.2 374.7 301 370 304.8Z" fill="#F6E5D6"/>
<path fill-rule="evenodd" clip-rule="evenodd" d="M359.7 325.9C359.9 324.7 360.6 323.6 361.8 322.6C367.3 320.1 373.9 322 377.2 327.3C378.8 330 379.3 333 378.8 335.8C378.3 338.6 376.8 341.2 374.4 343.1C369.4 345.3 366.6 341.1 363.3 335.8C361.1 332 359.2 328.7 359.7 325.9Z" fill="#F6E5D6"/>
<path fill-rule="evenodd" clip-rule="evenodd" d="M359.7 367.5C359.9 366.3 360.6 365.2 361.8 364.2C367.3 361.7 373.9 363.6 377.2 368.9C378.8 371.6 379.3 374.6 378.8 377.4C378.3 380.2 376.8 382.8 374.4 384.7C369.4 386.9 366.6 382.7 363.3 377.4C361 373.6 359.1 370.3 359.7 367.5Z" fill="#F6E5D6"/>
<path fill-rule="evenodd" clip-rule="evenodd" d="M746.4 454C745.4 494.1 729 525.5 694.5 547L533.3 455.9L585.2 363.3L746.4 454Z" fill="#C6A482"/>
<path fill-rule="evenodd" clip-rule="evenodd" d="M566.5 329C645.2 369.4 550.5 487.9 520.8 471.4L451.4 432.6C443.1 428 440.1 417.5 444.8 409.2L499.6 311.4C504.2 303.1 514.7 300.1 523 304.8L566.5 329Z" fill="#C6A482"/>
<path fill-rule="evenodd" clip-rule="evenodd" d="M474.9 406.2C482.1 410.2 484.7 419.4 480.7 426.6L478.5 430.5C474.5 437.7 465.3 440.3 458.1 436.2L341.9 371.2C334.7 367.2 332.1 358 336.1 350.8L338.3 346.9C342.3 339.7 351.5 337.1 358.7 341.2L474.9 406.2Z" fill="#C6A482"/>
<path fill-rule="evenodd" clip-rule="evenodd" d="M484.1 368.2C491.3 372.2 493.9 381.4 489.8 388.6L487.6 392.5C483.6 399.7 474.4 402.3 467.2 398.2L351 333.2C343.8 329.2 341.2 320 345.3 312.8L347.5 308.9C351.5 301.7 360.7 299.1 367.9 303.1L484.1 368.2Z" fill="#C6A482"/>
<path fill-rule="evenodd" clip-rule="evenodd" d="M517.2 344.3C524.4 348.3 527 357.5 523 364.7L520.8 368.6C516.8 375.8 507.7 378.4 500.4 374.3L384.2 309.3C377 305.3 374.4 296.1 378.5 288.9L380.7 285C384.7 277.8 393.9 275.2 401.1 279.2L517.2 344.3Z" fill="#C6A482"/>
<path fill-rule="evenodd" clip-rule="evenodd" d="M401.6 284.6C407.8 288.1 405.2 293.2 401.8 299.4C398.3 305.6 395.3 310.5 389.1 307C382.9 303.5 380.7 295.7 384.2 289.5C387.7 283.4 395.5 281.2 401.6 284.6Z" fill="#F5DECD"/>
<path fill-rule="evenodd" clip-rule="evenodd" d="M555.7 322.7C562.9 326.7 565.5 335.9 561.5 343.1L559.3 347C555.3 354.2 546.1 356.8 538.9 352.7L422.7 287.7C415.5 283.7 412.9 274.5 417 267.3L419.2 263.4C423.2 256.2 432.4 253.6 439.6 257.7L555.7 322.7Z" fill="#C6A482"/>
<path fill-rule="evenodd" clip-rule="evenodd" d="M440.1 263.1C446.3 266.6 443.7 271.7 440.3 277.9C436.8 284.1 433.8 289 427.6 285.5C421.4 282 419.2 274.2 422.7 268C426.1 261.8 434 259.6 440.1 263.1Z" fill="#F5DECD"/>
<path fill-rule="evenodd" clip-rule="evenodd" d="M526.1 435C536.5 433.7 546 441.2 547.2 451.6L547.3 452.5C548.6 462.9 541.1 472.4 530.7 473.6L429.3 488C418.9 489.3 409.4 481.8 408.2 471.4L408.1 470.5C406.8 460.1 414.3 450.6 424.7 449.4L526.1 435Z" fill="#C6A482"/>
<path fill-rule="evenodd" clip-rule="evenodd" d="M418.1 480.7C418.5 483 419.3 485.1 420.5 487C423.2 488 426.2 488.4 429.3 488L444.3 486C444.5 483.3 444 480.1 443.5 476.7C442.1 467.8 440.6 460.7 431.7 462.1C422.8 463.5 416.7 471.8 418.1 480.7Z" fill="#FAEDE4"/>
<path fill-rule="evenodd" clip-rule="evenodd" d="M418.1 480.7C418.5 483 419.3 485.1 420.5 487C423.2 488 426.2 488.4 429.3 488L440.6 486.5C440.7 483.9 440.3 481 439.8 477.8C438.4 468.9 436.9 461.8 428 463.2C428 463.2 428 463.2 427.9 463.2C421.1 466 416.9 473.2 418.1 480.7Z" fill="#F6E5D6"/>
<path fill-rule="evenodd" clip-rule="evenodd" d="M566.6 329.1C566.6 329 566.5 329 566.6 329.1C566.5 329 566.6 329 566.6 329.1ZM618.5 381.9L591.1 366.6L618.5 381.9Z" fill="#F4F4F4"/>
<path fill-rule="evenodd" clip-rule="evenodd" d="M420.8 261.2C422.6 259.1 424.9 257.5 427.4 256.7C424.9 257.5 422.6 259 420.8 261.2ZM382.3 282.7C384.1 280.6 386.4 279 388.9 278.2C386.4 279 384.1 280.6 382.3 282.7ZM406.7 282.4L401.1 279.2L406.7 282.4Z" fill="#B0DCE3"/>
<path fill-rule="evenodd" clip-rule="evenodd" d="M419.3 263.3C419.7 262.5 420.2 261.8 420.8 261.2C420.2 261.8 419.7 262.5 419.3 263.3ZM419.2 263.5C419.2 263.5 419.2 263.4 419.2 263.5C419.2 263.4 419.2 263.5 419.2 263.5ZM380.7 284.9C381.2 284.1 381.7 283.4 382.2 282.7C381.7 283.4 381.2 284.1 380.7 284.9ZM489.8 328.9L406.7 282.4L489.8 328.9L490.2 328.1L489.8 328.9Z" fill="#A7D0D4"/>
<path fill-rule="evenodd" clip-rule="evenodd" d="M359.4 346.6C365.6 350.1 363 355.2 359.6 361.4C356.1 367.6 353.1 372.5 346.9 369C340.7 365.5 338.5 357.7 342 351.5C345.4 345.3 353.2 343.1 359.4 346.6Z" fill="#FAEDE4"/>
<path fill-rule="evenodd" clip-rule="evenodd" d="M368.6 308.5C374.8 312 372.2 317.1 368.8 323.3C365.3 329.5 362.3 334.4 356.1 330.9C349.9 327.4 347.7 319.6 351.2 313.4C354.6 307.3 362.4 305.1 368.6 308.5Z" fill="#FAEDE4"/>
<path fill-rule="evenodd" clip-rule="evenodd" d="M394.6 307.9C393.1 308.4 391.3 308.2 389.1 307C382.9 303.5 380.7 295.7 384.2 289.5C385.8 286.6 388.4 284.6 391.3 283.6C394.6 282.5 398.4 282.7 401.7 284.6C407.9 288.1 405.3 293.2 401.9 299.4C399.6 303.4 397.5 306.9 394.6 307.9Z" fill="#FAEDE4"/>
<path fill-rule="evenodd" clip-rule="evenodd" d="M433.1 286.3C431.6 286.8 429.8 286.6 427.6 285.4C421.4 281.9 419.2 274.1 422.7 267.9C424.3 265 426.9 263 429.8 262C433.1 260.9 436.9 261.1 440.2 262.9C446.4 266.4 443.8 271.5 440.4 277.7C438.1 281.9 436 285.4 433.1 286.3Z" fill="#FAEDE4"/>
<path fill-rule="evenodd" clip-rule="evenodd" d="M358 345.9C362.6 349.3 360.2 354.2 357 359.9C353.8 365.6 350.9 370.2 345.7 368.1C340.5 364.3 338.8 357.2 342.1 351.5C345.1 345.8 352 343.5 358 345.9Z" fill="#F6E5D6"/>
<path fill-rule="evenodd" clip-rule="evenodd" d="M367.1 307.8C371.7 311.2 369.3 316.1 366.1 321.8C362.9 327.5 360 332.1 354.8 330C349.6 326.2 347.9 319.1 351.2 313.4C354.3 307.7 361.2 305.4 367.1 307.8Z" fill="#F6E5D6"/>
<path fill-rule="evenodd" clip-rule="evenodd" d="M392 306.4C390.8 306.8 389.4 306.8 387.9 306.2C382.7 302.4 381 295.3 384.2 289.6C385.8 286.7 388.4 284.7 391.3 283.7C394.2 282.7 397.3 282.8 400.3 284C404.9 287.4 402.5 292.3 399.3 298C396.9 302 394.9 305.4 392 306.4Z" fill="#F6E5D6"/>
<path fill-rule="evenodd" clip-rule="evenodd" d="M430.5 284.9C429.3 285.3 427.9 285.3 426.4 284.7C421.2 280.9 419.5 273.8 422.7 268.1C424.3 265.2 426.9 263.2 429.8 262.2C432.7 261.2 435.8 261.3 438.8 262.5C443.4 265.9 441 270.8 437.8 276.5C435.4 280.4 433.3 283.9 430.5 284.9Z" fill="#F6E5D6"/>
<path fill-rule="evenodd" clip-rule="evenodd" d="M634 437.5C633.4 437.1 632.5 437.4 632.2 438L621.7 456.4C621.3 457 621.6 457.9 622.2 458.2C622.8 458.6 623.7 458.3 624 457.7L634.5 439.3C634.9 438.7 634.7 437.9 634 437.5Z" fill="#302E2D"/>
<path fill-rule="evenodd" clip-rule="evenodd" d="M573 427.7C572.1 427.2 570.9 427.5 570.4 428.4L567.9 432.8C567.4 433.7 567.7 434.9 568.6 435.5C569.5 436 570.7 435.7 571.2 434.8L573.7 430.4C574.2 429.5 573.9 428.3 573 427.7Z" fill="#302E2D"/>
<path fill-rule="evenodd" clip-rule="evenodd" d="M581 413.7C580.4 413.3 579.5 413.6 579.2 414.2L573.9 423.4C573.5 424 573.8 424.9 574.4 425.2C575 425.6 575.9 425.3 576.2 424.7L581.5 415.5C581.8 414.9 581.6 414 581 413.7Z" fill="#302E2D"/>
<path fill-rule="evenodd" clip-rule="evenodd" d="M590.4 488.2L562 472.2C561.5 470.8 561.7 469.2 562.8 467.3C562.9 467.1 563 467 563.1 466.8C563.4 466.2 563.7 465.6 564 465C566.2 460.3 567.6 454.9 565.3 449.9C565.3 449.8 565.2 449.8 565.2 449.7C565.2 449.6 565.1 449.6 565.1 449.5C563.9 447.2 563.5 443.9 564.8 441.6C572.8 427.4 580.9 413.3 588.9 399.1L589.3 398.4L589.5 398L589.7 397.7C589.9 397.3 590.2 397 590.5 396.6C592.4 394.1 595.6 393 598.6 392.8C599.1 392.8 599.6 392.7 600.1 392.6C605.3 390.7 607.7 386.7 609.9 383.5C610.6 382.4 611.3 381.4 612.2 380.6C612.7 380.1 613.3 379.7 613.9 379.4L643.3 395.9C643.4 396.6 643.3 397.4 643.2 398.1C643 399.2 642.5 400.4 641.9 401.5C640.3 405 638 409.1 639.1 414.5C639.3 415 639.5 415.4 639.7 415.9C640.2 416.9 640.6 418.1 640.8 419.3C641.5 421 641.2 422.9 640.6 424.8C640.5 425.2 640.3 425.7 640.1 426L639.9 426.3L639.7 426.7L639.3 427.4C631.3 441.6 623.2 455.7 615.2 469.9C613.9 472.2 610.8 473.6 608.2 473.7C608.1 473.7 608 473.7 608 473.7C607.9 473.7 607.9 473.7 607.8 473.7C606.8 473.8 605.9 474 605.1 474.3C601.1 475.7 597.9 479.1 595.5 482.6C595.1 483.1 594.8 483.7 594.4 484.3C594.3 484.5 594.2 484.6 594.1 484.8C593 486.8 591.8 487.9 590.4 488.2ZM601.7 433C601.4 433.5 601.6 434.1 602.1 434.4C602.6 434.7 603.2 434.5 603.5 434C603.6 433.8 603.6 433.6 603.6 433.4C603.6 433.2 603.5 433 603.3 432.8C603.2 432.7 603.2 432.7 603.1 432.6C602.6 432.3 602 432.5 601.7 433Z" fill="#2F373D"/>
<path fill-rule="evenodd" clip-rule="evenodd" d="M598.7 392.8C599.2 392.8 599.7 392.7 600.2 392.6C605.4 390.7 607.8 386.7 610 383.5C610.7 382.4 611.4 381.4 612.3 380.6C612.8 380.1 613.4 379.7 614 379.4L628.7 387.7L603.2 432.6C602.7 432.3 602.1 432.5 601.8 433C601.5 433.5 601.7 434.1 602.2 434.4L576.2 480.2L562 472.2C561.5 470.8 561.7 469.2 562.8 467.3C562.9 467.1 563 467 563.1 466.8C563.4 466.2 563.7 465.6 564 465C566.2 460.3 567.6 454.9 565.3 449.9C565.3 449.8 565.2 449.8 565.2 449.7C565.2 449.6 565.1 449.6 565.1 449.5C563.9 447.2 563.5 443.9 564.8 441.6C572.8 427.4 580.9 413.3 588.9 399.1L589.3 398.4L589.5 398L589.7 397.7C589.9 397.3 590.2 397 590.5 396.6C592.5 394.1 595.6 393 598.7 392.8Z" fill="#2A2F33"/>
<path fill-rule="evenodd" clip-rule="evenodd" d="M598.7 392.8C600.5 392.7 602.1 393.5 603.7 394.4L635.6 412.5C637.2 413.4 638.5 414.4 639.4 415.6C639.5 415.8 639.6 415.9 639.6 416.1C641 418.8 641.7 422.1 640.5 425C640.4 425.4 640.2 425.9 640 426.2L639.8 426.5L639.6 426.9L639.2 427.6C631.2 441.8 623.1 455.9 615.1 470.1C613.8 472.4 610.7 473.8 608.1 473.9C608 473.9 607.9 473.9 607.9 473.9C607.8 473.9 607.8 473.9 607.7 473.9C605.2 474.2 603.6 473.5 601.4 472.2L569.8 454.2C567.4 452.8 566.4 452.1 565.3 449.7C565.3 449.6 565.2 449.6 565.2 449.5C565.2 449.4 565.1 449.4 565.1 449.3C563.9 447 563.5 443.7 564.8 441.4C572.8 427.2 580.9 413.1 588.9 398.9L589.3 398.2L589.5 397.8L589.7 397.5C589.9 397.1 590.2 396.8 590.5 396.4C592.5 394.1 595.6 393 598.7 392.8ZM601.7 433C601.4 433.5 601.6 434.1 602.1 434.4C602.6 434.7 603.2 434.5 603.5 434C603.6 433.8 603.6 433.6 603.6 433.4C603.6 433.2 603.5 433 603.3 432.8C603.2 432.7 603.2 432.7 603.1 432.6C602.6 432.3 602 432.5 601.7 433Z" fill="#596163"/>
<path fill-rule="evenodd" clip-rule="evenodd" d="M638.2 416.4C637.3 415.4 636.1 414.5 634.9 413.8L603 395.7C601.7 395 600.3 394.2 598.8 394.3C596.2 394.5 593.4 395.4 591.8 397.5C591.6 397.8 591.4 398 591.2 398.3L590.4 399.8C582.4 414 574.3 428.1 566.3 442.3C565.2 444.2 565.7 446.9 566.6 448.8C566.6 448.9 566.7 448.9 566.7 449C566.7 449.1 566.7 449.1 566.8 449.2C567.7 451.3 568.6 451.8 570.7 453L602.3 471C604.2 472.1 605.6 472.7 607.7 472.5C607.8 472.5 607.8 472.5 607.9 472.5C608 472.5 608.1 472.5 608.1 472.5C610.2 472.4 612.8 471.3 613.8 469.5C621.8 455.3 629.9 441.2 637.9 427L638.7 425.5C638.9 425.2 639 424.9 639.1 424.6V424.5V424.4C640.1 421.9 639.4 419 638.2 416.7C638.3 416.6 638.2 416.5 638.2 416.4ZM602.9 434.4C603.2 434.3 603.4 434.1 603.5 433.9V434C603.3 434.2 603.1 434.3 602.9 434.4ZM603.6 433.6C603.6 433.4 603.6 433.2 603.5 433C603.6 433.1 603.6 433.2 603.6 433.4C603.6 433.4 603.6 433.5 603.6 433.6Z" fill="white"/>
<path fill-rule="evenodd" clip-rule="evenodd" d="M585.9 433.9V433H581.7V433.9H585.9ZM603.2 450.2H602.3V454.4H603.2V450.2ZM588.4 442.2L588 441.5L584.3 443.6L584.7 444.3L588.4 442.2ZM594.7 448.2L594 447.8L591.9 451.5L592.6 451.9L594.7 448.2ZM611.5 447.7L610.8 448.1L612.9 451.7L613.6 451.3L611.5 447.7ZM617.5 441.4L617.1 442.1L620.8 444.2L621.2 443.5L617.5 441.4ZM619.5 433V433.9H623.7V433H619.5ZM617 424.6L617.4 425.3L621.1 423.2L620.7 422.5L617 424.6ZM610.7 418.7L611.4 419.1L613.5 415.4L612.8 415L610.7 418.7ZM602.2 416.7H603.1V412.5H602.2V416.7ZM593.9 419.1L594.6 418.7L592.5 415L591.8 415.5L593.9 419.1ZM587.9 425.4L588.3 424.7L584.6 422.6L584.2 423.3L587.9 425.4Z" fill="#060000"/>
<path fill-rule="evenodd" clip-rule="evenodd" d="M603.6 433.4L614.2 430.2L614 429.6L603.3 432.8C603.5 433 603.6 433.2 603.6 433.4Z" fill="#060000"/>
<path fill-rule="evenodd" clip-rule="evenodd" d="M589.1 432.1L589 432.6L600.8 433.6C600.8 434.2 601.1 434.8 601.7 435.1C602 435.3 602.3 435.3 602.6 435.3L605.3 442.1L606.5 441.6L603.8 434.8C603.9 434.7 604 434.5 604.1 434.4C604.6 433.5 604.3 432.4 603.4 431.9C602.5 431.4 601.4 431.7 600.9 432.6C600.8 432.7 600.8 432.9 600.7 433L589.1 432.1ZM603.1 432.6L603.2 432.7C603.2 432.7 603.3 432.8 603.3 432.9C603.4 433 603.4 433.2 603.4 433.4C603.1 433.9 602.5 434 602 433.8C601.5 433.5 601.4 432.9 601.6 432.4C602 432.5 602.6 432.3 603.1 432.6Z" fill="#060000"/>
<path fill-rule="evenodd" clip-rule="evenodd" d="M307 585.5C346.3 576 404.4 574.4 445.2 585.5L397.8 608.5L316.2 600.5L307 585.5Z" fill="#192020"/>
<path fill-rule="evenodd" clip-rule="evenodd" d="M315.4 552.6C354.7 545.8 394.6 544.6 435.5 552.6L406.5 576L324.9 568L315.4 552.6Z" fill="#C8C8C9"/>
<path d="M426.458 523.739L326.258 523.466L325.945 638.166L426.145 638.439L426.458 523.739Z" fill="#D8B091"/>
<path fill-rule="evenodd" clip-rule="evenodd" d="M446.1 492.7C448.9 576.2 307.7 552.4 307.7 520.3L307.9 445.3C307.9 436.3 315.2 429.1 324.2 429.1L430 429.4C439 429.4 446.2 436.7 446.2 445.7L446.1 492.7Z" fill="#F0CBB0"/>
<path fill-rule="evenodd" clip-rule="evenodd" d="M340.4 452.6C340.4 460.4 334 466.7 326.2 466.7H322C314.2 466.7 307.9 460.3 307.9 452.5L308.2 326.9C308.2 319.1 314.6 312.8 322.4 312.8H326.6C334.4 312.8 340.7 319.2 340.7 327L340.4 452.6Z" fill="#F0CBB0"/>
<path fill-rule="evenodd" clip-rule="evenodd" d="M376 442.7C376 450.5 369.6 456.8 361.8 456.8H357.6C349.8 456.8 343.5 450.4 343.5 442.6L343.8 317C343.8 309.2 350.2 302.9 358 302.9H362.2C370 302.9 376.3 309.3 376.3 317.1L376 442.7Z" fill="#F0CBB0"/>
<path fill-rule="evenodd" clip-rule="evenodd" d="M410.9 459C410.9 466.8 404.5 473.1 396.7 473.1H392.5C384.7 473.1 378.4 466.7 378.4 458.9L378.7 333.3C378.7 325.5 385.1 319.2 392.9 319.2H397.1C404.9 319.2 411.2 325.6 411.2 333.4L410.9 459Z" fill="#F0CBB0"/>
<path fill-rule="evenodd" clip-rule="evenodd" d="M407.1 336.3C407.1 343 401.7 343.2 395 343.2C388.3 343.2 382.9 342.9 382.9 336.2C382.9 329.5 388.4 324.1 395 324.1C401.7 324.2 407.1 329.6 407.1 336.3Z" fill="#F5DECD"/>
<path fill-rule="evenodd" clip-rule="evenodd" d="M446.3 480.9C446.3 488.7 439.9 495 432.1 495H427.9C420.1 495 413.8 488.6 413.8 480.8L414.1 355.2C414.1 347.4 420.5 341.1 428.3 341.1H432.5C440.3 341.1 446.6 347.5 446.6 355.3L446.3 480.9Z" fill="#F0CBB0"/>
<path d="M446.3 480.9C446.3 488.7 439.9 495 432.1 495H427.9C420.1 495 413.8 488.6 413.8 480.8L414.1 355.2C414.1 347.4 420.5 341.1 428.3 341.1H432.5C440.3 341.1 446.6 347.5 446.6 355.3L446.3 480.9Z" stroke="#F0CBB0" stroke-width="0.216" stroke-miterlimit="22.9256"/>
<path fill-rule="evenodd" clip-rule="evenodd" d="M442.5 358.2C442.5 364.9 437.1 365.1 430.4 365.1C423.7 365.1 418.3 364.8 418.3 358.1C418.3 351.4 423.8 346 430.4 346C437.2 346.1 442.6 351.5 442.5 358.2Z" fill="#F5DECD"/>
<path fill-rule="evenodd" clip-rule="evenodd" d="M340.2 507.9C346 515.9 344.2 527.1 336.2 532.9L335.5 533.4C327.5 539.2 316.3 537.4 310.5 529.4L252.1 452.4C246.3 444.4 248.1 433.2 256.1 427.4L256.8 426.9C264.8 421.1 276 422.9 281.8 430.9L340.2 507.9Z" fill="#F0CBB0"/>
<path fill-rule="evenodd" clip-rule="evenodd" d="M252.9 439.9C251.2 441.3 249.8 442.9 248.8 444.8C249.2 447.5 250.3 450.2 252 452.5L260.5 463.9C262.8 462.8 265.2 461 267.8 459C274.5 453.8 279.7 449.3 274.5 442.6C269.3 435.8 259.6 434.6 252.9 439.9Z" fill="#FAEDE4"/>
<path fill-rule="evenodd" clip-rule="evenodd" d="M252.9 439.9C251.2 441.3 249.8 442.9 248.8 444.8C249.2 447.5 250.3 450.2 252 452.5L258.4 461.1C260.5 460 262.8 458.3 265.2 456.4C271.9 451.2 277.1 446.7 271.9 440C266.5 435.6 258.6 435.4 252.9 439.9Z" fill="#F6E5D6"/>
<path fill-rule="evenodd" clip-rule="evenodd" d="M426.3 559.8L426.4 530.2L426.3 559.8Z" fill="#F4F4F4"/>
<path fill-rule="evenodd" clip-rule="evenodd" d="M435.2 341.3C437.8 341.8 440.1 343 442 344.7C440.2 343 437.8 341.8 435.2 341.3ZM399.8 319.5C402.4 320 404.7 321.2 406.6 322.9C404.7 321.2 402.4 320 399.8 319.5ZM411.3 339.5V333.4V339.5Z" fill="#B0DCE3"/>
<path fill-rule="evenodd" clip-rule="evenodd" d="M432.8 341.1C433.6 341.1 434.4 341.2 435.2 341.4C434.5 341.2 433.7 341.1 432.8 341.1ZM397.3 319.2C398.2 319.2 399 319.3 399.8 319.5C399 319.3 398.1 319.2 397.3 319.2ZM411 429.3L411.2 339.4L411 429.3H411.8H411Z" fill="#A7D0D4"/>
<path fill-rule="evenodd" clip-rule="evenodd" d="M336.6 329.9C336.6 336.6 331.2 336.8 324.5 336.8C317.8 336.8 312.4 336.5 312.4 329.8C312.4 323.1 317.9 317.7 324.5 317.7C331.2 317.8 336.7 323.2 336.6 329.9Z" fill="#FAEDE4"/>
<path fill-rule="evenodd" clip-rule="evenodd" d="M372.2 320C372.2 326.7 366.8 326.9 360.1 326.9C353.4 326.9 348 326.6 348 319.9C348 313.2 353.5 307.8 360.1 307.8C366.8 307.9 372.2 313.3 372.2 320Z" fill="#FAEDE4"/>
<path fill-rule="evenodd" clip-rule="evenodd" d="M384.7 341.2C383.6 340.2 382.9 338.6 382.9 336.3C382.9 329.6 388.4 324.2 395 324.2C398.1 324.2 401 325.4 403.1 327.3C405.6 329.5 407.1 332.7 407.1 336.3C407.1 343 401.7 343.2 395 343.2C390.7 343.2 386.8 343.1 384.7 341.2Z" fill="#FAEDE4"/>
<path fill-rule="evenodd" clip-rule="evenodd" d="M420.1 363.1C419 362.1 418.3 360.5 418.3 358.2C418.3 351.5 423.8 346.1 430.4 346.1C433.5 346.1 436.3 347.3 438.5 349.2C441 351.4 442.5 354.6 442.5 358.2C442.5 364.9 437.1 365.1 430.4 365.1C426.1 365.1 422.3 365 420.1 363.1Z" fill="#FAEDE4"/>
<path fill-rule="evenodd" clip-rule="evenodd" d="M315.4 552.6C355.1 564.5 395.1 564.9 435.5 552.6V681.2H315.4V552.6Z" fill="#EAECEC"/>
<path fill-rule="evenodd" clip-rule="evenodd" d="M336.4 557.8C369.2 564.2 402.2 562.7 435.5 552.6V579.9C402.2 591.3 371.2 592.4 336.4 585.5V557.8Z" fill="#FFFFFD"/>
<path fill-rule="evenodd" clip-rule="evenodd" d="M306.9 585.5C352.8 600.4 399 599.3 445.2 585.5C438.1 626.3 445.6 668.1 451.7 711.7C401.6 726 353.3 726.5 306.9 712.5C308.6 670.4 309.4 628.2 306.9 585.5Z" fill="#31383E"/>
<path fill-rule="evenodd" clip-rule="evenodd" d="M431.5 716.7C429.2 676.3 430.5 630.8 419.8 591.8C428.3 590.1 436.8 588 445.3 585.5C438.2 626.3 445.7 668.1 451.8 711.7L431.5 716.7Z" fill="#474F54"/>
<path fill-rule="evenodd" clip-rule="evenodd" d="M316.2 588.3C318.6 630.1 323.3 679.1 335.6 719.2L306.9 712.4C306.9 711.7 307 711.1 307 710.4C307 709.7 307.1 709.1 307.1 708.4C307.1 707.7 307.2 707.1 307.2 706.4C307.2 705.7 307.2 705.1 307.3 704.4C307.3 703.7 307.3 703.1 307.4 702.4C307.4 701.7 307.4 701.1 307.5 700.4C307.5 699.7 307.5 699.1 307.6 698.4C307.6 697.7 307.6 697.1 307.7 696.4C307.7 695.7 307.7 695.1 307.8 694.4C307.8 693.7 307.8 693.1 307.9 692.4C307.9 691.7 307.9 691.1 308 690.4C308 689.7 308 689.1 308.1 688.4C308.1 687.7 308.1 687.1 308.2 686.4C308.2 685.7 308.2 685.1 308.3 684.4C308.3 683.7 308.3 683.1 308.4 682.4C308.5 681.7 308.4 681.1 308.5 680.4C308.5 679.7 308.5 679.1 308.5 678.4C308.5 677.7 308.5 677.1 308.5 676.4C308.5 675.7 308.5 675.1 308.5 674.4C308.5 673.7 308.5 673.1 308.5 672.4C308.5 671.7 308.5 671.1 308.5 670.4C308.5 669.7 308.5 669.1 308.5 668.4C308.5 667.7 308.5 667.1 308.5 666.4C308.5 665.7 308.5 665.1 308.5 664.4C308.5 663.7 308.5 663.1 308.5 662.4C308.5 661.7 308.5 661.1 308.5 660.4C308.5 659.7 308.5 659.1 308.5 658.4C308.5 657.7 308.5 657.1 308.5 656.4C308.5 655.7 308.5 655.1 308.5 654.4C308.5 653.7 308.5 653.1 308.5 652.4C308.5 651.7 308.5 651.1 308.5 650.4C308.5 649.7 308.5 649.1 308.5 648.4C308.5 647.7 308.5 647.1 308.5 646.4C308.5 645.7 308.5 645.1 308.5 644.4C308.5 643.7 308.5 643.1 308.5 642.4C308.5 641.7 308.5 641.1 308.5 640.4C308.5 639.7 308.5 639.1 308.5 638.4C308.5 637.7 308.5 637.1 308.5 636.4C308.5 635.7 308.5 635.1 308.5 634.4C308.5 633.7 308.5 633.1 308.5 632.4C308.5 631.7 308.5 631.1 308.5 630.4C308.5 629.7 308.5 629.1 308.5 628.4C308.5 627.7 308.5 627.1 308.5 626.4C308.5 625.7 308.5 625.1 308.5 624.4C308.5 623.7 308.5 623.1 308.5 622.4C308.5 621.7 308.5 621.1 308.5 620.4C308.5 619.7 308.5 619.1 308.5 618.4C308.5 617.7 308.5 617.1 308.5 616.4C308.5 615.7 308.5 615.1 308.5 614.4C308.5 613.7 308.5 613.1 308.4 612.4C308.4 611.7 308.4 611.1 308.3 610.4C308.3 609.7 308.3 609.1 308.2 608.4C308.2 607.7 308.2 607.1 308.1 606.4C308.1 605.7 308.1 605.1 308 604.4C308 603.7 308 603.1 307.9 602.4C307.9 601.7 307.8 601.1 307.8 600.4C307.8 599.7 307.7 599.1 307.7 598.4C307.7 597.7 307.6 597.1 307.6 596.4C307.6 595.7 307.5 595.1 307.5 594.4C307.5 593.7 307.4 593.1 307.4 592.4C307.4 591.7 307.3 591.1 307.3 590.4C307.3 589.7 307.2 589.1 307.2 588.4C307.2 587.7 307.1 587.1 307.1 586.4C307.1 585.7 307 585.1 307 584.4C310 586.5 313.1 587.4 316.2 588.3Z" fill="#202A2A"/>
<path fill-rule="evenodd" clip-rule="evenodd" d="M329.1 618.6C335.4 618.6 340.5 623.7 340.5 630C340.5 636.3 335.4 641.4 329.1 641.4C322.8 641.4 317.7 636.3 317.7 630C317.7 623.7 322.8 618.6 329.1 618.6Z" fill="#9E9E9F"/>
<path fill-rule="evenodd" clip-rule="evenodd" d="M329.1 623.6C332.7 623.6 335.5 626.5 335.5 630C335.5 633.5 332.6 636.4 329.1 636.4C325.5 636.4 322.7 633.5 322.7 630C322.7 626.5 325.6 623.6 329.1 623.6Z" fill="#B6B7B8"/>
<path fill-rule="evenodd" clip-rule="evenodd" d="M335.3 628.3C335.5 628.9 335.6 629.5 335.6 630.1C335.6 633.7 332.7 636.5 329.2 636.5C327.2 636.5 325.3 635.6 324.2 634.1C324 633.5 323.9 632.9 323.9 632.3C323.9 628.7 326.8 625.9 330.3 625.9C332.3 625.8 334.1 626.8 335.3 628.3Z" fill="#EAECEC"/>
<path fill-rule="evenodd" clip-rule="evenodd" d="M336.5 328.4C335.8 333.8 330.7 334 324.5 334C318.3 334 313.2 333.7 312.5 328.4C313.2 322.4 318.4 317.7 324.6 317.8C330.7 317.8 335.8 322.4 336.5 328.4Z" fill="#F6E5D6"/>
<path fill-rule="evenodd" clip-rule="evenodd" d="M372.1 318.5C371.4 323.9 366.3 324.1 360.1 324.1C353.9 324.1 348.8 323.8 348.1 318.5C348.8 312.5 353.9 307.8 360.2 307.9C366.3 307.9 371.4 312.5 372.1 318.5Z" fill="#F6E5D6"/>
<path fill-rule="evenodd" clip-rule="evenodd" d="M384.7 338.3C383.8 337.5 383.2 336.4 383 334.8C383.7 328.8 388.8 324.1 395.1 324.2C398.2 324.2 401.1 325.4 403.2 327.3C405.3 329.2 406.7 331.8 407.1 334.8C406.4 340.2 401.3 340.4 395.1 340.4C390.7 340.4 386.8 340.3 384.7 338.3Z" fill="#F6E5D6"/>
<path fill-rule="evenodd" clip-rule="evenodd" d="M420.1 360.2C419.2 359.4 418.6 358.3 418.4 356.7C419.1 350.7 424.2 346 430.5 346.1C433.6 346.1 436.4 347.3 438.6 349.2C440.7 351.1 442.1 353.7 442.5 356.7C441.8 362.1 436.7 362.3 430.5 362.3C426.1 362.3 422.3 362.1 420.1 360.2Z" fill="#F6E5D6"/>
<path d="M646.108 521.597V519.964H647.741V521.597H646.108Z" fill="white"/>
</svg>
